<?xml version="1.0" encoding="utf-8"?>
<!-- Generator: Adobe Illustrator 27.7.0, SVG Export Plug-In . SVG Version: 6.00 Build 0)  -->
<svg version="1.1" id="Layer_1" xmlns="http://www.w3.org/2000/svg" xmlns:xlink="http://www.w3.org/1999/xlink" x="0px" y="0px"
	 viewBox="0 0 512 512" style="enable-background:new 0 0 512 512;" xml:space="preserve">
<style type="text/css">
	.st0{fill:#849484;}
</style>
<path class="st0" d="M319.1,131c-19.1-15.7-43.1-24.3-67.8-24.3h-64.2L159,0H22l28.1,106.7H0v42.7h251.3c14.9,0,29.3,5.2,40.8,14.7
	c30.1,25.4,54.7,56.7,72.2,92h-50.7l-64,42.7H0v42.7h262.4l64-42.7h141.7c-11,97.1-93,170.5-190.7,170.7H0V512h277.3
	c129.5-0.2,234.5-105.1,234.7-234.7V256H411.5C390.9,207.7,359.3,164.8,319.1,131z M77.3,42.7h48.8l16.8,64H94.2L77.3,42.7z
	 M256,234.7H0V192h256V234.7z M64,426.7c-11.8,0-21.3-9.6-21.3-21.3S52.2,384,64,384s21.3,9.6,21.3,21.3S75.8,426.7,64,426.7z
	 M149.3,426.7c-11.8,0-21.3-9.6-21.3-21.3s9.6-21.3,21.3-21.3s21.3,9.6,21.3,21.3S161.1,426.7,149.3,426.7z M234.7,426.7
	c-11.8,0-21.3-9.6-21.3-21.3s9.6-21.3,21.3-21.3s21.3,9.6,21.3,21.3S246.4,426.7,234.7,426.7z"/>
</svg>
